# xmcd
#
# Track frame offsets:
# 150
# 16044
# 40639
# 65470
# 84751
# 106450
#
# Disc length: 1663 seconds
#
# Revision: 1
# Processed by: cddbd v1.4PL0 Copyright (c) Steve Scherf et al.
# Submitted via: inCDius 2.0b9
#
DISCID=37067d06
DTITLE=The Evinrudes - Drive Me Home
DYEAR=1900
DGENRE=
TTITLE0=Drive Me Home
TTITLE1=Little Red Stars
TTITLE2=Indians On The Moon
TTITLE3=Sunfish
TTITLE4=Good Humor Man
TTITLE5=Happy Ever After (live)
EXTD=
EXTT0=
EXTT1=
EXTT2=
EXTT3=
EXTT4=
EXTT5=
PLAYORDER=
